<mxfile host="Electron" modified="2024-02-04T12:44:00.154Z" agent="Mozilla/5.0 (Windows NT 10.0; Win64; x64) AppleWebKit/537.36 (KHTML, like Gecko) draw.io/22.1.21 Chrome/120.0.6099.109 Electron/28.1.0 Safari/537.36" etag="67YVfvGmDaRK7wsUYtAd" version="22.1.21" type="device">
  <diagram name="PÃ¡gina-1" id="4Sf7SvA4lHEcUsebIqKW">
    <mxGraphModel dx="1886" dy="900" grid="1" gridSize="10" guides="1" tooltips="1" connect="1" arrows="1" fold="1" page="1" pageScale="1" pageWidth="827" pageHeight="1169" math="0" shadow="0">
      <root>
        <mxCell id="0" />
        <mxCell id="1" parent="0" />
        <mxCell id="j6klkLQYV-LLXTHT6G_R-7" style="edgeStyle=orthogonalEdgeStyle;rounded=0;orthogonalLoop=1;jettySize=auto;html=1;entryX=1;entryY=0.5;entryDx=0;entryDy=0;" parent="1" source="j6klkLQYV-LLXTHT6G_R-1" target="j6klkLQYV-LLXTHT6G_R-2" edge="1">
          <mxGeometry relative="1" as="geometry" />
        </mxCell>
        <mxCell id="j6klkLQYV-LLXTHT6G_R-1" value="" style="rounded=0;whiteSpace=wrap;html=1;" parent="1" vertex="1">
          <mxGeometry x="330" y="200" width="120" height="60" as="geometry" />
        </mxCell>
        <mxCell id="j6klkLQYV-LLXTHT6G_R-8" style="edgeStyle=orthogonalEdgeStyle;rounded=0;orthogonalLoop=1;jettySize=auto;html=1;entryX=0.25;entryY=0;entryDx=0;entryDy=0;" parent="1" source="j6klkLQYV-LLXTHT6G_R-2" target="j6klkLQYV-LLXTHT6G_R-1" edge="1">
          <mxGeometry relative="1" as="geometry">
            <Array as="points">
              <mxPoint x="240" y="170" />
              <mxPoint x="360" y="170" />
            </Array>
          </mxGeometry>
        </mxCell>
        <mxCell id="j6klkLQYV-LLXTHT6G_R-11" style="edgeStyle=orthogonalEdgeStyle;rounded=0;orthogonalLoop=1;jettySize=auto;html=1;endArrow=none;endFill=0;" parent="1" source="j6klkLQYV-LLXTHT6G_R-2" target="j6klkLQYV-LLXTHT6G_R-10" edge="1">
          <mxGeometry relative="1" as="geometry" />
        </mxCell>
        <mxCell id="j6klkLQYV-LLXTHT6G_R-2" value="RX" style="rhombus;whiteSpace=wrap;html=1;" parent="1" vertex="1">
          <mxGeometry x="200" y="190" width="80" height="80" as="geometry" />
        </mxCell>
        <mxCell id="j6klkLQYV-LLXTHT6G_R-18" style="edgeStyle=orthogonalEdgeStyle;rounded=0;orthogonalLoop=1;jettySize=auto;html=1;entryX=0.5;entryY=0;entryDx=0;entryDy=0;" parent="1" source="j6klkLQYV-LLXTHT6G_R-6" target="j6klkLQYV-LLXTHT6G_R-17" edge="1">
          <mxGeometry relative="1" as="geometry" />
        </mxCell>
        <mxCell id="j6klkLQYV-LLXTHT6G_R-6" value="DECR_CONT" style="rounded=0;whiteSpace=wrap;html=1;" parent="1" vertex="1">
          <mxGeometry x="330" y="310" width="120" height="60" as="geometry" />
        </mxCell>
        <mxCell id="j6klkLQYV-LLXTHT6G_R-12" style="edgeStyle=orthogonalEdgeStyle;rounded=0;orthogonalLoop=1;jettySize=auto;html=1;entryX=0;entryY=0.5;entryDx=0;entryDy=0;" parent="1" source="j6klkLQYV-LLXTHT6G_R-10" target="j6klkLQYV-LLXTHT6G_R-6" edge="1">
          <mxGeometry relative="1" as="geometry" />
        </mxCell>
        <mxCell id="j6klkLQYV-LLXTHT6G_R-10" value="PR_CONT_HALF&lt;br&gt;CLR_LOOP" style="ellipse;whiteSpace=wrap;html=1;" parent="1" vertex="1">
          <mxGeometry x="180" y="310" width="120" height="60" as="geometry" />
        </mxCell>
        <mxCell id="j6klkLQYV-LLXTHT6G_R-13" value="0" style="text;html=1;align=center;verticalAlign=middle;resizable=0;points=[];autosize=1;strokeColor=none;fillColor=none;" parent="1" vertex="1">
          <mxGeometry x="210" y="260" width="30" height="30" as="geometry" />
        </mxCell>
        <mxCell id="j6klkLQYV-LLXTHT6G_R-14" value="1" style="text;html=1;align=center;verticalAlign=middle;resizable=0;points=[];autosize=1;strokeColor=none;fillColor=none;" parent="1" vertex="1">
          <mxGeometry x="210" y="160" width="30" height="30" as="geometry" />
        </mxCell>
        <mxCell id="j6klkLQYV-LLXTHT6G_R-15" value="E_MITAD" style="text;html=1;align=center;verticalAlign=middle;resizable=0;points=[];autosize=1;strokeColor=none;fillColor=none;" parent="1" vertex="1">
          <mxGeometry x="414" y="280" width="70" height="30" as="geometry" />
        </mxCell>
        <mxCell id="j6klkLQYV-LLXTHT6G_R-16" value="E_W8_RX" style="text;html=1;align=center;verticalAlign=middle;resizable=0;points=[];autosize=1;strokeColor=none;fillColor=none;" parent="1" vertex="1">
          <mxGeometry x="409" y="170" width="80" height="30" as="geometry" />
        </mxCell>
        <mxCell id="j6klkLQYV-LLXTHT6G_R-19" style="edgeStyle=orthogonalEdgeStyle;rounded=0;orthogonalLoop=1;jettySize=auto;html=1;entryX=0;entryY=0.75;entryDx=0;entryDy=0;" parent="1" source="j6klkLQYV-LLXTHT6G_R-17" target="j6klkLQYV-LLXTHT6G_R-6" edge="1">
          <mxGeometry relative="1" as="geometry">
            <Array as="points">
              <mxPoint x="310" y="460" />
              <mxPoint x="310" y="355" />
            </Array>
          </mxGeometry>
        </mxCell>
        <mxCell id="j6klkLQYV-LLXTHT6G_R-21" style="edgeStyle=orthogonalEdgeStyle;rounded=0;orthogonalLoop=1;jettySize=auto;html=1;entryX=0.5;entryY=0;entryDx=0;entryDy=0;" parent="1" source="j6klkLQYV-LLXTHT6G_R-17" target="j6klkLQYV-LLXTHT6G_R-20" edge="1">
          <mxGeometry relative="1" as="geometry" />
        </mxCell>
        <mxCell id="j6klkLQYV-LLXTHT6G_R-17" value="END_CONT" style="rhombus;whiteSpace=wrap;html=1;" parent="1" vertex="1">
          <mxGeometry x="350" y="420" width="80" height="80" as="geometry" />
        </mxCell>
        <mxCell id="j6klkLQYV-LLXTHT6G_R-20" value="INCR_LOOP&lt;br&gt;PR_CONT_FULL" style="whiteSpace=wrap;html=1;" parent="1" vertex="1">
          <mxGeometry x="330" y="540" width="120" height="60" as="geometry" />
        </mxCell>
        <mxCell id="j6klkLQYV-LLXTHT6G_R-22" value="0" style="text;html=1;align=center;verticalAlign=middle;resizable=0;points=[];autosize=1;strokeColor=none;fillColor=none;" parent="1" vertex="1">
          <mxGeometry x="320" y="430" width="30" height="30" as="geometry" />
        </mxCell>
        <mxCell id="j6klkLQYV-LLXTHT6G_R-23" value="1" style="text;html=1;align=center;verticalAlign=middle;resizable=0;points=[];autosize=1;strokeColor=none;fillColor=none;" parent="1" vertex="1">
          <mxGeometry x="390" y="498" width="30" height="30" as="geometry" />
        </mxCell>
        <mxCell id="j6klkLQYV-LLXTHT6G_R-24" value="E_LOOP" style="text;html=1;align=center;verticalAlign=middle;resizable=0;points=[];autosize=1;strokeColor=none;fillColor=none;" parent="1" vertex="1">
          <mxGeometry x="414" y="510" width="70" height="30" as="geometry" />
        </mxCell>
        <mxCell id="j6klkLQYV-LLXTHT6G_R-25" value="" style="edgeStyle=none;orthogonalLoop=1;jettySize=auto;html=1;rounded=0;entryX=0.521;entryY=-0.078;entryDx=0;entryDy=0;entryPerimeter=0;" parent="1" target="j6klkLQYV-LLXTHT6G_R-1" edge="1">
          <mxGeometry width="100" relative="1" as="geometry">
            <mxPoint x="393" y="120" as="sourcePoint" />
            <mxPoint x="500" y="120" as="targetPoint" />
            <Array as="points" />
          </mxGeometry>
        </mxCell>
        <mxCell id="j6klkLQYV-LLXTHT6G_R-26" value="RESET_L*" style="text;html=1;align=center;verticalAlign=middle;resizable=0;points=[];autosize=1;strokeColor=none;fillColor=none;" parent="1" vertex="1">
          <mxGeometry x="354" y="94" width="80" height="30" as="geometry" />
        </mxCell>
        <mxCell id="j6klkLQYV-LLXTHT6G_R-31" style="edgeStyle=orthogonalEdgeStyle;rounded=0;orthogonalLoop=1;jettySize=auto;html=1;entryX=1;entryY=0.5;entryDx=0;entryDy=0;" parent="1" target="j6klkLQYV-LLXTHT6G_R-33" edge="1">
          <mxGeometry relative="1" as="geometry">
            <mxPoint x="280" y="570" as="targetPoint" />
            <mxPoint x="330" y="570" as="sourcePoint" />
          </mxGeometry>
        </mxCell>
        <mxCell id="j6klkLQYV-LLXTHT6G_R-39" style="edgeStyle=orthogonalEdgeStyle;rounded=0;orthogonalLoop=1;jettySize=auto;html=1;entryX=0;entryY=0.5;entryDx=0;entryDy=0;" parent="1" source="j6klkLQYV-LLXTHT6G_R-33" target="j6klkLQYV-LLXTHT6G_R-38" edge="1">
          <mxGeometry relative="1" as="geometry">
            <Array as="points">
              <mxPoint x="235" y="670" />
            </Array>
          </mxGeometry>
        </mxCell>
        <mxCell id="j6klkLQYV-LLXTHT6G_R-33" value="END_LOOP" style="rhombus;whiteSpace=wrap;html=1;" parent="1" vertex="1">
          <mxGeometry x="195" y="530" width="80" height="80" as="geometry" />
        </mxCell>
        <mxCell id="j6klkLQYV-LLXTHT6G_R-35" style="edgeStyle=orthogonalEdgeStyle;rounded=0;orthogonalLoop=1;jettySize=auto;html=1;entryX=0.411;entryY=-0.01;entryDx=0;entryDy=0;entryPerimeter=0;" parent="1" source="j6klkLQYV-LLXTHT6G_R-33" target="j6klkLQYV-LLXTHT6G_R-1" edge="1">
          <mxGeometry relative="1" as="geometry">
            <Array as="points">
              <mxPoint x="160" y="570" />
              <mxPoint x="160" y="140" />
              <mxPoint x="379" y="140" />
            </Array>
          </mxGeometry>
        </mxCell>
        <mxCell id="j6klkLQYV-LLXTHT6G_R-34" value="CMD_PX_GO" style="ellipse;whiteSpace=wrap;html=1;" parent="1" vertex="1">
          <mxGeometry x="110" y="420" width="90" height="50" as="geometry" />
        </mxCell>
        <mxCell id="j6klkLQYV-LLXTHT6G_R-37" value="1" style="text;html=1;align=center;verticalAlign=middle;resizable=0;points=[];autosize=1;strokeColor=none;fillColor=none;" parent="1" vertex="1">
          <mxGeometry x="160" y="540" width="30" height="30" as="geometry" />
        </mxCell>
        <mxCell id="j6klkLQYV-LLXTHT6G_R-44" style="edgeStyle=orthogonalEdgeStyle;rounded=0;orthogonalLoop=1;jettySize=auto;html=1;" parent="1" source="j6klkLQYV-LLXTHT6G_R-38" target="j6klkLQYV-LLXTHT6G_R-41" edge="1">
          <mxGeometry relative="1" as="geometry" />
        </mxCell>
        <mxCell id="j6klkLQYV-LLXTHT6G_R-38" value="DECR_CONT" style="whiteSpace=wrap;html=1;" parent="1" vertex="1">
          <mxGeometry x="330" y="640" width="120" height="60" as="geometry" />
        </mxCell>
        <mxCell id="j6klkLQYV-LLXTHT6G_R-40" value="0" style="text;html=1;align=center;verticalAlign=middle;resizable=0;points=[];autosize=1;strokeColor=none;fillColor=none;" parent="1" vertex="1">
          <mxGeometry x="235" y="618" width="30" height="30" as="geometry" />
        </mxCell>
        <mxCell id="j6klkLQYV-LLXTHT6G_R-43" style="edgeStyle=orthogonalEdgeStyle;rounded=0;orthogonalLoop=1;jettySize=auto;html=1;entryX=0;entryY=0.75;entryDx=0;entryDy=0;" parent="1" source="j6klkLQYV-LLXTHT6G_R-41" target="j6klkLQYV-LLXTHT6G_R-38" edge="1">
          <mxGeometry relative="1" as="geometry">
            <Array as="points">
              <mxPoint x="236" y="780" />
              <mxPoint x="236" y="685" />
            </Array>
          </mxGeometry>
        </mxCell>
        <mxCell id="j6klkLQYV-LLXTHT6G_R-57" style="edgeStyle=orthogonalEdgeStyle;shape=connector;rounded=0;orthogonalLoop=1;jettySize=auto;html=1;labelBackgroundColor=default;strokeColor=default;align=center;verticalAlign=middle;fontFamily=Helvetica;fontSize=11;fontColor=default;endArrow=classic;" parent="1" source="j6klkLQYV-LLXTHT6G_R-41" target="j6klkLQYV-LLXTHT6G_R-52" edge="1">
          <mxGeometry relative="1" as="geometry" />
        </mxCell>
        <mxCell id="j6klkLQYV-LLXTHT6G_R-41" value="END_CONT" style="rhombus;whiteSpace=wrap;html=1;" parent="1" vertex="1">
          <mxGeometry x="350" y="740" width="80" height="80" as="geometry" />
        </mxCell>
        <mxCell id="j6klkLQYV-LLXTHT6G_R-42" value="E_W8_TICK" style="text;html=1;align=center;verticalAlign=middle;resizable=0;points=[];autosize=1;strokeColor=none;fillColor=none;" parent="1" vertex="1">
          <mxGeometry x="404" y="610" width="90" height="30" as="geometry" />
        </mxCell>
        <mxCell id="j6klkLQYV-LLXTHT6G_R-55" style="edgeStyle=orthogonalEdgeStyle;shape=connector;rounded=0;orthogonalLoop=1;jettySize=auto;html=1;entryX=1;entryY=0.75;entryDx=0;entryDy=0;labelBackgroundColor=default;strokeColor=default;align=center;verticalAlign=middle;fontFamily=Helvetica;fontSize=11;fontColor=default;endArrow=classic;" parent="1" source="j6klkLQYV-LLXTHT6G_R-52" target="j6klkLQYV-LLXTHT6G_R-20" edge="1">
          <mxGeometry relative="1" as="geometry">
            <Array as="points">
              <mxPoint x="560" y="585" />
            </Array>
          </mxGeometry>
        </mxCell>
        <mxCell id="j6klkLQYV-LLXTHT6G_R-56" style="edgeStyle=orthogonalEdgeStyle;shape=connector;rounded=0;orthogonalLoop=1;jettySize=auto;html=1;entryX=1;entryY=0.25;entryDx=0;entryDy=0;labelBackgroundColor=default;strokeColor=default;align=center;verticalAlign=middle;fontFamily=Helvetica;fontSize=11;fontColor=default;endArrow=classic;" parent="1" source="j6klkLQYV-LLXTHT6G_R-52" target="j6klkLQYV-LLXTHT6G_R-20" edge="1">
          <mxGeometry relative="1" as="geometry">
            <Array as="points">
              <mxPoint x="630" y="780" />
              <mxPoint x="630" y="555" />
            </Array>
          </mxGeometry>
        </mxCell>
        <mxCell id="j6klkLQYV-LLXTHT6G_R-52" value="END_LOOP" style="rhombus;whiteSpace=wrap;html=1;fontFamily=Helvetica;fontSize=11;fontColor=default;" parent="1" vertex="1">
          <mxGeometry x="520" y="740" width="80" height="80" as="geometry" />
        </mxCell>
        <mxCell id="j6klkLQYV-LLXTHT6G_R-58" value="0" style="text;html=1;align=center;verticalAlign=middle;resizable=0;points=[];autosize=1;strokeColor=none;fillColor=none;fontSize=11;fontFamily=Helvetica;fontColor=default;" parent="1" vertex="1">
          <mxGeometry x="645" y="758" width="30" height="30" as="geometry" />
        </mxCell>
        <mxCell id="j6klkLQYV-LLXTHT6G_R-59" value="1" style="text;html=1;align=center;verticalAlign=middle;resizable=0;points=[];autosize=1;strokeColor=none;fillColor=none;fontSize=11;fontFamily=Helvetica;fontColor=default;" parent="1" vertex="1">
          <mxGeometry x="565" y="710" width="30" height="30" as="geometry" />
        </mxCell>
        <mxCell id="j6klkLQYV-LLXTHT6G_R-60" value="BITSHIFT" style="ellipse;whiteSpace=wrap;html=1;" parent="1" vertex="1">
          <mxGeometry x="585" y="645" width="90" height="50" as="geometry" />
        </mxCell>
        <mxCell id="69AzLVRRSVUxRjCdjmL3-1" value="0" style="text;html=1;align=center;verticalAlign=middle;resizable=0;points=[];autosize=1;strokeColor=none;fillColor=none;" vertex="1" parent="1">
          <mxGeometry x="305" y="788" width="30" height="30" as="geometry" />
        </mxCell>
        <mxCell id="69AzLVRRSVUxRjCdjmL3-3" value="1" style="text;html=1;align=center;verticalAlign=middle;resizable=0;points=[];autosize=1;strokeColor=none;fillColor=none;" vertex="1" parent="1">
          <mxGeometry x="425" y="788" width="30" height="30" as="geometry" />
        </mxCell>
      </root>
    </mxGraphModel>
  </diagram>
</mxfile>
